<svg width="190" height="42" viewBox="0 0 190 42" fill="none" xmlns="http://www.w3.org/2000/svg">
<path d="M28.8945 5.25098L19.3945 14.9952L23.4721 19.1784L28.8945 13.614L39.1915 24.1783L43.2691 19.9994L28.8945 5.25098Z" fill="#0A47A3"/>
<path d="M8.29921 5.25L4.22266 9.43206L13.7142 19.17L17.7897 14.9879L8.30027 5.25106L8.29921 5.25Z" fill="#76ABEF"/>
<path d="M49.4917 5.25317L35.1172 20.0006L39.1916 24.1805L53.5651 9.43204L49.4907 5.25317H49.4917Z" fill="#0A47A3"/>
<path d="M34.3133 20.8268L28.8983 26.3847L18.594 15.8162L14.5195 19.9961L28.8973 34.7478L38.3867 25.0067L34.3133 20.8268Z" fill="#1673FF"/>
<path d="M67.571 11.8623C67.9584 11.8623 68.0618 12.1007 68.14 12.4181L71.0322 28.5277L74.1556 12.3915C74.1603 12.2528 74.2164 12.1209 74.3128 12.022C74.4083 11.9243 74.537 11.8671 74.6728 11.8623H76.7132C76.8541 11.8675 76.9886 11.9234 77.0921 12.0199C77.1964 12.1176 77.2635 12.2491 77.2821 12.3915L80.4066 28.5277L83.2724 12.4181C83.3463 12.1125 83.5046 11.8623 83.8382 11.8623H85.4405C85.8279 11.8623 85.9831 12.0731 85.9324 12.4735L82.7045 30.4402C82.7039 30.5873 82.6462 30.7284 82.5441 30.8333C82.4941 30.8845 82.4347 30.9252 82.3692 30.9532C82.3036 30.9811 82.2332 30.9957 82.162 30.9962H79.0618C78.9926 31.0007 78.9233 30.99 78.8586 30.9648C78.7939 30.9396 78.7353 30.9006 78.6871 30.8503C78.638 30.7998 78.6 30.7392 78.5758 30.6727C78.5516 30.6062 78.5417 30.5354 78.5467 30.4648L75.7093 15.6769L72.8688 30.4626C72.815 30.8088 72.6366 30.9951 72.3263 30.9951H69.2504C68.9527 30.9951 68.7585 30.7566 68.6815 30.4381L65.4546 12.4426C65.404 12.0454 65.5591 11.8623 65.9455 11.8623H67.571ZM88.1522 20.5522C88.1522 18.7492 89.3165 17.6098 90.9927 17.6098H96.0552C97.7356 17.6098 98.8967 18.7492 98.8967 20.5522V22.8045C98.9115 23.1826 98.8513 23.5596 98.7173 23.9122C98.5851 24.2639 98.3828 24.5847 98.123 24.8547C97.8633 25.1229 97.553 25.3339 97.211 25.4733C96.8692 25.6135 96.5021 25.6799 96.1333 25.6682H90.8133V27.0974C90.8009 27.3123 90.8331 27.5273 90.9076 27.729C90.9821 27.9307 91.0973 28.1145 91.2461 28.2688C91.3941 28.4203 91.5722 28.5382 91.7687 28.6149C91.9652 28.6917 92.1757 28.7255 92.3861 28.7139H97.3957C97.7831 28.7139 97.9911 28.9003 97.9911 29.2975V30.3839C98.0012 30.4663 97.9928 30.55 97.9665 30.6287C97.9402 30.7074 97.8966 30.7791 97.8391 30.8385C97.782 30.8971 97.7123 30.9416 97.6354 30.9687C97.5586 30.9959 97.4766 31.0049 97.3957 30.9951H91.0708C89.3165 30.9951 88.1522 29.8003 88.1522 27.9727V20.5532V20.5522ZM90.8143 24.2625L95.177 23.8919C95.3466 23.89 95.514 23.8531 95.6689 23.7832C95.8238 23.7135 95.9628 23.6123 96.0773 23.4862C96.1936 23.3589 96.2834 23.2095 96.3413 23.0468C96.3994 22.8839 96.4245 22.7111 96.4151 22.5384V21.1241C96.4264 20.9453 96.4014 20.7661 96.3414 20.5973C96.2816 20.4287 96.1881 20.2741 96.0668 20.1433C95.9462 20.0148 95.8005 19.913 95.6387 19.8447C95.4768 19.7762 95.3028 19.7426 95.1273 19.7461H92.1813C91.9978 19.7335 91.8138 19.7613 91.6422 19.8278C91.4705 19.8941 91.3151 19.9975 91.187 20.1305C91.0566 20.2644 90.956 20.4246 90.8917 20.6007C90.8275 20.7768 90.8012 20.9646 90.8143 21.1517V24.2614V24.2625ZM104.215 9.95278C104.296 9.94271 104.378 9.9517 104.455 9.97904C104.532 10.0064 104.601 10.0514 104.658 10.1104C104.716 10.1695 104.759 10.241 104.786 10.3195C104.812 10.3981 104.821 10.4817 104.811 10.5641V18.1145L109.123 17.6885C109.518 17.632 109.916 17.6057 110.315 17.6098C112.045 17.6098 113.129 18.7492 113.129 20.5246V28.1517C113.129 29.8748 111.991 31.0665 110.315 31.0665C110.106 31.0665 109.486 30.9876 108.971 30.96L104.802 30.5351L104.466 30.9876H102.735C102.652 30.9971 102.568 30.9868 102.49 30.9578C102.412 30.9288 102.342 30.8818 102.285 30.8204C102.227 30.7587 102.184 30.6844 102.158 30.6032C102.133 30.5219 102.127 30.436 102.139 30.3518V10.5641C102.13 10.4817 102.139 10.3983 102.165 10.3198C102.192 10.2413 102.235 10.1698 102.292 10.1104C102.35 10.0518 102.419 10.0071 102.496 9.97973C102.573 9.95242 102.655 9.94319 102.736 9.95278H104.216H104.215ZM104.811 19.8888V28.7938H109.064C109.251 28.8082 109.439 28.781 109.615 28.714C109.79 28.6471 109.948 28.5419 110.079 28.4062C110.212 28.2693 110.314 28.1056 110.379 27.9258C110.445 27.7462 110.471 27.5545 110.457 27.3636V21.3211C110.468 21.1316 110.438 20.942 110.372 20.7645C110.305 20.587 110.203 20.4254 110.071 20.2902C109.94 20.1571 109.783 20.0535 109.609 19.9863C109.435 19.9191 109.25 19.8898 109.064 19.9004L104.811 19.8888ZM118.703 9.95278C118.784 9.94202 118.867 9.95047 118.944 9.97745C119.021 10.0044 119.091 10.0492 119.148 10.1083C119.206 10.1678 119.249 10.2397 119.275 10.3186C119.302 10.3976 119.31 10.4814 119.3 10.5641V18.1145L123.615 17.6885C124.009 17.6317 124.407 17.6054 124.805 17.6098C126.535 17.6098 127.619 18.7492 127.619 20.5246V28.1517C127.619 29.8748 126.482 31.0665 124.805 31.0665C124.597 31.0665 123.978 30.9876 123.463 30.96L119.293 30.5351L118.96 30.9876H117.23C117.104 31.002 116.978 30.9715 116.873 30.9014C116.767 30.8314 116.689 30.7262 116.653 30.6042C116.628 30.5227 116.622 30.4365 116.633 30.3518V10.5641C116.624 10.4817 116.633 10.3983 116.66 10.3198C116.687 10.2414 116.73 10.1699 116.787 10.1104C116.844 10.0516 116.914 10.0069 116.99 9.97952C117.067 9.95219 117.149 9.94305 117.23 9.95278H118.703ZM119.3 19.8888V28.7938H123.561C123.749 28.8088 123.937 28.7819 124.113 28.7151C124.288 28.6482 124.448 28.5432 124.578 28.4072C124.712 28.2709 124.815 28.1072 124.88 27.9272C124.946 27.747 124.972 27.5548 124.957 27.3636V21.3211C124.973 21.0358 124.899 20.7527 124.745 20.5125C124.592 20.2723 124.367 20.0871 124.103 19.9835C123.929 19.9165 123.743 19.8882 123.558 19.9004L119.3 19.8888ZM132.468 17.6098C132.59 17.6001 132.713 17.6386 132.808 17.7173C132.904 17.7961 132.966 17.909 132.983 18.0347L136.056 28.9802L139.157 18.0687C139.193 17.9479 139.263 17.8403 139.359 17.7598C139.456 17.6793 139.574 17.6293 139.698 17.6162H141.274C141.356 17.6067 141.44 17.6189 141.517 17.6516C141.593 17.6842 141.659 17.7362 141.71 17.8025C141.762 17.8688 141.797 17.9472 141.811 18.0305C141.825 18.1139 141.819 18.1994 141.792 18.2797L136.702 36.2453C136.652 36.5882 136.47 36.7501 136.187 36.7501H134.675C134.589 36.7479 134.505 36.7266 134.428 36.6877C134.351 36.6489 134.283 36.5935 134.23 36.5254C134.176 36.457 134.136 36.3776 134.115 36.2925C134.093 36.2075 134.09 36.1187 134.106 36.0323L135.568 30.994H134.302C134.174 31.003 134.049 30.9609 133.952 30.8769C133.855 30.7914 133.793 30.6712 133.781 30.5415L130.35 18.3009C130.311 18.175 130.319 18.0388 130.372 17.9184C130.426 17.7979 130.522 17.7016 130.642 17.6481C130.721 17.614 130.807 17.6008 130.893 17.6098H132.468Z" fill="#0A47A3"/>
<path d="M150.234 28.3443C150.239 28.44 150.279 28.5304 150.346 28.5984C150.413 28.6665 150.502 28.7075 150.597 28.7138H157.7C157.781 28.7024 157.863 28.7104 157.94 28.7371C158.018 28.764 158.088 28.809 158.145 28.8683C158.202 28.9281 158.245 29.0003 158.272 29.0794C158.298 29.1585 158.305 29.2425 158.295 29.3251V30.3826C158.311 30.5065 158.283 30.632 158.219 30.7384C158.155 30.8449 158.055 30.9261 157.939 30.9684C157.862 30.9952 157.78 31.0036 157.7 30.9929H148.17C148.09 31.0031 148.007 30.9943 147.93 30.9671C147.853 30.94 147.785 30.8952 147.728 30.8363C147.671 30.7771 147.626 30.7055 147.6 30.627C147.574 30.5485 147.565 30.465 147.575 30.3826V12.4702C147.559 12.3463 147.586 12.2209 147.651 12.1144C147.715 12.0079 147.814 11.9269 147.93 11.8844C148.007 11.8573 148.089 11.8486 148.17 11.8589H149.641C149.723 11.8477 149.805 11.8558 149.882 11.8827C149.959 11.9094 150.029 11.9543 150.086 12.0134C150.144 12.0728 150.188 12.145 150.215 12.2245C150.241 12.3039 150.248 12.3883 150.237 12.4713L150.234 28.3443ZM168.325 17.6097C170.082 17.6097 171.271 18.8322 171.271 20.666V30.3571C171.29 30.4835 171.265 30.6127 171.201 30.723C171.137 30.8334 171.038 30.9184 170.919 30.9641C170.841 30.9934 170.757 31.0036 170.674 30.9939H168.944L168.622 30.5414L164.672 30.9662C164.235 31.0258 163.795 31.0621 163.355 31.0728C161.675 31.0728 160.541 29.881 160.541 28.158V25.7714C160.541 24.0515 161.675 22.8599 163.355 22.8599C163.754 22.8673 164.152 22.9024 164.546 22.9631L168.622 23.388V21.4541C168.622 20.4211 168.004 19.8886 166.994 19.8886H161.774C161.693 19.8994 161.61 19.8909 161.533 19.8639C161.456 19.8369 161.387 19.7922 161.33 19.7332C161.273 19.6732 161.229 19.6015 161.203 19.5229C161.177 19.4443 161.168 19.3609 161.178 19.2784V18.221C161.168 18.1385 161.178 18.0553 161.204 17.9769C161.23 17.8984 161.274 17.8268 161.331 17.7673C161.388 17.7084 161.457 17.6636 161.534 17.6362C161.611 17.6089 161.693 17.5998 161.774 17.6097H168.325ZM164.361 24.846C164.181 24.8328 164 24.8596 163.832 24.9243C163.663 24.9891 163.51 25.0903 163.385 25.2208C163.256 25.352 163.157 25.5094 163.095 25.6825C163.031 25.8554 163.005 26.0401 163.019 26.224V27.6021C163.006 27.787 163.032 27.9725 163.095 28.1467C163.157 28.321 163.255 28.4801 163.383 28.6138C163.509 28.7453 163.661 28.8482 163.83 28.9156C163.999 28.9831 164.18 29.0134 164.361 29.0046H168.622V24.846H164.361ZM176.86 9.95266C176.941 9.94206 177.023 9.9506 177.1 9.97759C177.177 10.0046 177.246 10.0493 177.303 10.1081C177.361 10.1672 177.406 10.2391 177.432 10.3181C177.459 10.3972 177.466 10.4813 177.455 10.564V18.1144L181.77 17.6884C182.165 17.6316 182.563 17.6053 182.962 17.6097C184.692 17.6097 185.776 18.7491 185.776 20.5244V28.1516C185.776 29.8746 184.638 31.0664 182.962 31.0664C182.754 31.0664 182.135 30.9875 181.62 30.9599L177.45 30.535L177.117 30.9875H175.386C175.261 31.0023 175.134 30.972 175.029 30.9018C174.923 30.8317 174.846 30.7263 174.81 30.6042C174.785 30.5226 174.778 30.4364 174.79 30.3517V10.564C174.781 10.4815 174.79 10.3981 174.816 10.3197C174.844 10.2413 174.887 10.1698 174.944 10.1103C175.001 10.0518 175.071 10.0072 175.147 9.97986C175.224 9.95255 175.305 9.94325 175.386 9.95266H176.86ZM177.455 19.8886V28.7937H181.726C181.914 28.8081 182.102 28.7809 182.277 28.7139C182.453 28.647 182.613 28.5418 182.744 28.4061C182.877 28.2695 182.98 28.1056 183.045 27.9256C183.11 27.7456 183.136 27.5536 183.123 27.3625V21.322C183.132 21.1323 183.104 20.9426 183.037 20.7649C182.97 20.5873 182.867 20.4256 182.735 20.2901C182.604 20.156 182.447 20.052 182.273 19.9849C182.099 19.9178 181.912 19.8893 181.726 19.9014L177.455 19.8897V19.8886Z" fill="#1673FF"/>
</svg>
